<svg xmlns="http://www.w3.org/2000/svg" viewBox="0 0 120 120" width="120" height="120">
  <defs>
    <linearGradient id="g_whatsapp_agent" x1="0%" y1="0%" x2="100%" y2="100%">
      <stop offset="0%" stop-color="#0EA5E9"/>
      <stop offset="100%" stop-color="#0C4A6E"/>
    </linearGradient>
  </defs>
  <circle cx="60" cy="60" r="56" fill="url(#g_whatsapp_agent)"/>
  <g>
    <!-- Phone/handset -->
    <path d="M60,30 C44,30 34,42 34,56 C34,62 36,68 40,72 L36,84 L50,78 C53,80 56,80 60,80 C76,80 86,68 86,56 C86,42 76,30 60,30 Z" fill="none" stroke="#BAE6FD" stroke-width="3.5" stroke-linejoin="round"/>
    <path d="M50,50 C50,46 54,44 56,48 L58,52 C58,54 56,55 55,54 C53,56 56,62 60,64 C60,62 62,62 63,64 L66,66 C68,68 66,72 62,70 C54,66 48,58 50,50 Z" fill="#BAE6FD"/>
    
  </g>
</svg>
